<svg xmlns="http://www.w3.org/2000/svg" xmlns:xlink="http://www.w3.org/1999/xlink" width="1801" zoomAndPan="magnify" viewBox="0 0 1350.75 662.249984" height="883" preserveAspectRatio="xMidYMid meet" version="1.0"><defs><g/><clipPath id="322f0f8eda"><path d="M 130.769531 302.832031 L 243.363281 302.832031 L 243.363281 415.425781 L 130.769531 415.425781 Z M 130.769531 302.832031 " clip-rule="nonzero"/></clipPath><clipPath id="3528949e71"><path d="M 130.769531 359.128906 C 130.769531 390.21875 155.976562 415.425781 187.066406 415.425781 C 218.160156 415.425781 243.363281 390.21875 243.363281 359.128906 C 243.363281 328.035156 218.160156 302.832031 187.066406 302.832031 C 155.976562 302.832031 130.769531 328.035156 130.769531 359.128906 Z M 130.769531 359.128906 " clip-rule="nonzero"/></clipPath><clipPath id="2e6d516ddf"><path d="M 0.769531 0.832031 L 113.363281 0.832031 L 113.363281 113.425781 L 0.769531 113.425781 Z M 0.769531 0.832031 " clip-rule="nonzero"/></clipPath><clipPath id="ba672c14f2"><path d="M 0.769531 57.128906 C 0.769531 88.21875 25.976562 113.425781 57.066406 113.425781 C 88.160156 113.425781 113.363281 88.21875 113.363281 57.128906 C 113.363281 26.035156 88.160156 0.832031 57.066406 0.832031 C 25.976562 0.832031 0.769531 26.035156 0.769531 57.128906 Z M 0.769531 57.128906 " clip-rule="nonzero"/></clipPath><clipPath id="2075bd4751"><rect x="0" width="114" y="0" height="114"/></clipPath><clipPath id="b874628567"><path d="M 0.640625 237.777344 L 243.363281 237.777344 L 243.363281 480.5 L 0.640625 480.5 Z M 0.640625 237.777344 " clip-rule="nonzero"/></clipPath><clipPath id="b55822e460"><path d="M 0.640625 359.136719 C 0.640625 426.164062 54.976562 480.5 122 480.5 C 189.027344 480.5 243.363281 426.164062 243.363281 359.136719 C 243.363281 292.113281 189.027344 237.777344 122 237.777344 C 54.976562 237.777344 0.640625 292.113281 0.640625 359.136719 Z M 0.640625 359.136719 " clip-rule="nonzero"/></clipPath></defs><g fill="#0a071a" fill-opacity="1"><g transform="translate(269.81416, 468.198927)"><g><path d="M 115.03125 -73.921875 L 115.03125 -122.203125 L 160.671875 -122.203125 L 160.671875 -69.40625 C 160.671875 -56.320312 158.03125 -44.125 152.75 -32.8125 C 147.46875 -21.5 139.359375 -12.382812 128.421875 -5.46875 C 117.484375 1.445312 103.21875 4.90625 85.625 4.90625 C 67.519531 4.90625 52.929688 1.445312 41.859375 -5.46875 C 30.796875 -12.382812 22.6875 -21.5 17.53125 -32.8125 C 12.382812 -44.125 9.8125 -56.445312 9.8125 -69.78125 L 9.8125 -235.734375 L 58.078125 -235.734375 L 58.078125 -185.5625 L 160.671875 -185.5625 L 160.671875 -150.875 L 58.078125 -150.875 L 58.078125 -74.6875 C 58.078125 -63.113281 60.273438 -54.054688 64.671875 -47.515625 C 69.078125 -40.984375 76.3125 -37.71875 86.375 -37.71875 C 96.175781 -37.71875 103.398438 -40.859375 108.046875 -47.140625 C 112.703125 -53.429688 115.03125 -62.359375 115.03125 -73.921875 Z M 115.03125 -73.921875 "/></g></g></g><g fill="#0a071a" fill-opacity="1"><g transform="translate(444.442573, 468.198927)"><g><path d="M 176.890625 0 L 130.5 0 L 130.5 -26.03125 C 117.925781 -5.40625 98.691406 4.90625 72.796875 4.90625 C 60.472656 4.90625 49.597656 2.015625 40.171875 -3.765625 C 30.742188 -9.554688 23.328125 -17.539062 17.921875 -27.71875 C 12.515625 -37.90625 9.8125 -49.785156 9.8125 -63.359375 L 9.8125 -185.5625 L 58.84375 -185.5625 L 58.84375 -70.90625 C 58.84375 -47.769531 69.273438 -36.203125 90.140625 -36.203125 C 102.710938 -36.203125 112.203125 -40.160156 118.609375 -48.078125 C 125.023438 -56.003906 128.234375 -66.128906 128.234375 -78.453125 L 128.234375 -185.5625 L 176.890625 -185.5625 Z M 176.890625 0 "/></g></g></g><g fill="#0a071a" fill-opacity="1"><g transform="translate(636.79786, 468.198927)"><g><path d="M 58.84375 0 L 9.8125 0 L 9.8125 -253.453125 L 58.84375 -253.453125 Z M 58.84375 0 "/></g></g></g><g fill="#0a071a" fill-opacity="1"><g transform="translate(710.345529, 468.198927)"><g><path d="M 59.96875 0 L 10.9375 0 L 10.9375 -185.5625 L 59.96875 -185.5625 Z M 59.96875 -207.828125 L 10.9375 -207.828125 L 10.9375 -253.453125 L 59.96875 -253.453125 Z M 59.96875 -207.828125 "/></g></g></g><g fill="#0a071a" fill-opacity="1"><g transform="translate(786.533335, 468.198927)"><g><path d="M 176.890625 0 L 130.5 0 L 130.5 -26.03125 C 117.925781 -5.40625 98.691406 4.90625 72.796875 4.90625 C 60.472656 4.90625 49.597656 2.015625 40.171875 -3.765625 C 30.742188 -9.554688 23.328125 -17.539062 17.921875 -27.71875 C 12.515625 -37.90625 9.8125 -49.785156 9.8125 -63.359375 L 9.8125 -185.5625 L 58.84375 -185.5625 L 58.84375 -70.90625 C 58.84375 -47.769531 69.273438 -36.203125 90.140625 -36.203125 C 102.710938 -36.203125 112.203125 -40.160156 118.609375 -48.078125 C 125.023438 -56.003906 128.234375 -66.128906 128.234375 -78.453125 L 128.234375 -185.5625 L 176.890625 -185.5625 Z M 176.890625 0 "/></g></g></g><g clip-path="url(#322f0f8eda)"><g clip-path="url(#3528949e71)"><g transform="matrix(1, 0, 0, 1, 130, 302)"><g clip-path="url(#2075bd4751)"><g clip-path="url(#2e6d516ddf)"><g clip-path="url(#ba672c14f2)"><path fill="#000000" d="M 0.769531 113.425781 L 0.769531 0.832031 L 113.363281 0.832031 L 113.363281 113.425781 Z M 0.769531 113.425781 " fill-opacity="1" fill-rule="nonzero"/></g></g></g></g></g></g><g clip-path="url(#b874628567)"><g clip-path="url(#b55822e460)"><path stroke-linecap="butt" transform="matrix(0, -0.749152, 0.749152, 0, 0.639156, 480.500784)" fill="none" stroke-linejoin="miter" d="M 162.002025 0.00196066 C 72.531016 0.00196066 0.00104669 72.53193 0.00104669 161.997724 C 0.00104669 251.468733 72.531016 323.998702 162.002025 323.998702 C 251.467819 323.998702 323.997788 251.468733 323.997788 161.997724 C 323.997788 72.53193 251.467819 0.00196066 162.002025 0.00196066 Z M 162.002025 0.00196066 " stroke="#09071a" stroke-width="114" stroke-opacity="1" stroke-miterlimit="4"/></g></g></svg>